HIERARCHY
ROOT Hips
{
	OFFSET 0.000000 0.000000 0.000000
	CHANNELS 6 Xposition Yposition Zposition Zrotation Yrotation Xrotation 
	JOINT LowerBack
	{
		OFFSET 0.000000 0.000000 0.000000
		CHANNELS 3 Zrotation Yrotation Xrotation
		JOINT Spine
		{
			OFFSET 0.028270 2.035590 -0.193380
			CHANNELS 3 Zrotation Yrotation Xrotation
			JOINT Spine1
			{
				OFFSET 0.056720 2.048850 -0.042750
				CHANNELS 3 Zrotation Yrotation Xrotation
				JOINT Neck
				{
					OFFSET 0.000000 0.000000 0.000000
					CHANNELS 3 Zrotation Yrotation Xrotation
					JOINT Neck1
					{
						OFFSET -0.054170 1.746240 0.172020
						CHANNELS 3 Zrotation Yrotation Xrotation
						JOINT Head
						{
							OFFSET 0.104070 1.761360 -0.123970
							CHANNELS 3 Zrotation Yrotation Xrotation
							End Site
							{
								OFFSET 0.000000 0.000000 0.000000
							}
						}
					}
				}
				JOINT LeftShoulder
				{
					OFFSET 0.000000 0.000000 0.000000
					CHANNELS 3 Zrotation Yrotation Xrotation
					JOINT LeftArm
					{
						OFFSET 3.362410 1.200890 -0.311210
						CHANNELS 3 Zrotation Yrotation Xrotation
						JOINT LeftForeArm
						{
							OFFSET 4.983000 -0.000000 -0.000000
							CHANNELS 3 Zrotation Yrotation Xrotation
							JOINT LeftHand
							{
								OFFSET 3.483560 -0.000000 -0.000000
								CHANNELS 3 Zrotation Yrotation Xrotation
								JOINT LeftFingerBase
								{
									OFFSET 0.000000 0.000000 0.000000
									CHANNELS 3 Zrotation Yrotation Xrotation
									JOINT LeftHandIndex1
									{
										OFFSET 0.715260 -0.000000 -0.000000
										CHANNELS 3 Zrotation Yrotation Xrotation
										End Site
										{
											OFFSET 0.000000 0.000000 0.000000
										}
									}
								}
								JOINT LThumb
								{
									OFFSET 0.000000 0.000000 0.000000
									CHANNELS 3 Zrotation Yrotation Xrotation
									End Site
									{
										OFFSET 0.000000 0.000000 0.000000
									}
								}
							}
						}
					}
				}
				JOINT RightShoulder
				{
					OFFSET 0.000000 0.000000 0.000000
					CHANNELS 3 Zrotation Yrotation Xrotation
					JOINT RightArm
					{
						OFFSET -3.136600 1.374050 -0.404650
						CHANNELS 3 Zrotation Yrotation Xrotation
						JOINT RightForeArm
						{
							OFFSET -5.241900 -0.000000 -0.000000
							CHANNELS 3 Zrotation Yrotation Xrotation
							JOINT RightHand
							{
								OFFSET -3.444170 -0.000000 -0.000000
								CHANNELS 3 Zrotation Yrotation Xrotation
								JOINT RightFingerBase
								{
									OFFSET 0.000000 0.000000 0.000000
									CHANNELS 3 Zrotation Yrotation Xrotation
									JOINT RightHandIndex1
									{
										OFFSET -0.622530 -0.000000 -0.000000
										CHANNELS 3 Zrotation Yrotation Xrotation
										End Site
										{
											OFFSET 0.000000 0.000000 0.000000
										}
									}
								}
								JOINT RThumb
								{
									OFFSET 0.000000 0.000000 0.000000
									CHANNELS 3 Zrotation Yrotation Xrotation
									End Site
									{
										OFFSET 0.000000 0.000000 0.000000
									}
								}
							}
						}
					}
				}
			}
		}
	}
}
}
MOTION
Frames: 6
Frame Time: 0.008333
-10.823709 17.152884 -0.582114 128.048644 88.159855 129.319667 3.190274 -6.323697 -5.331824 0.497452 -6.749989 -2.942149 -5.421630 -6.704787 3.821125 9.993922 -23.266630 -11.436479 -2.529941 -0.150623 -0.926265 0.000000 0.000000 0.000000 4.763172 14.949830 1.331452 -34.158867 0.998233 -2.766743 -1.902200 -51.531717 0.000938 1.169372 -0.762999 -0.009264 -0.130348 0.169926 -0.000000 0.000000 0.000000 0.000000 0.000000 0.000000 0.000000 18.320632 -22.178604 -0.731251 74.539827 -16.911627 -12.582904 4.556581 21.473972 0.004080 7.951366 1.420199 0.099020 0.069420 -0.012482 -0.000000 0.000000 0.000000 0.000000 0.000000 0.000000 0.000000 
-10.647645 17.161613 -0.544343 134.106413 88.306027 135.186745 3.423567 -6.259600 -5.234189 0.530086 -6.701624 -2.939432 -5.444304 -6.655754 3.782007 10.033004 -23.160158 -11.410364 -2.548670 -0.152840 -0.919632 0.000000 0.000000 0.000000 4.785920 14.866663 1.310328 -34.654631 1.331763 -2.626254 -1.924348 -51.469180 0.001454 1.032138 -0.785903 -0.008364 -0.129386 0.166120 0.000000 0.000000 0.000000 0.000000 0.000000 0.000000 0.000000 18.359036 -22.022590 -0.727070 74.150686 -16.221161 -12.827720 4.540854 21.291629 0.004496 7.723949 1.516347 0.102730 0.070912 -0.014627 -0.000000 0.000000 0.000000 0.000000 0.000000 0.000000 0.000000 
-10.474806 17.168813 -0.506357 140.085966 88.438860 140.982848 3.628835 -6.186032 -5.110239 0.553408 -6.640588 -2.932513 -5.472549 -6.593749 3.739506 10.084827 -23.035007 -11.392648 -2.564640 -0.154600 -0.915320 0.000000 0.000000 0.000000 4.810531 14.780440 1.293128 -35.167515 1.680731 -2.433508 -1.950221 -51.367635 0.001906 0.900219 -0.791839 -0.007265 -0.128709 0.161682 -0.000000 0.000000 0.000000 0.000000 0.000000 0.000000 0.000000 18.393200 -21.842517 -0.714011 73.777570 -15.462220 -13.059340 4.520610 21.116448 0.004983 7.468925 1.640007 0.107442 0.072500 -0.017158 -0.000000 0.000000 0.000000 0.000000 0.000000 0.000000 0.000000 
-10.305118 17.174434 -0.468406 145.756416 88.552054 146.479793 3.799935 -6.104539 -4.964644 0.567025 -6.568146 -2.921873 -5.505234 -6.520168 3.694270 10.144375 -22.894960 -11.383101 -2.578177 -0.155942 -0.913301 0.000000 0.000000 0.000000 4.825847 14.695031 1.280284 -35.684345 2.035233 -2.177755 -1.979806 -51.227709 0.002299 0.773891 -0.782358 -0.006068 -0.128341 0.156560 -0.000000 0.000000 0.000000 0.000000 0.000000 0.000000 0.000000 18.421052 -21.642581 -0.693532 73.418314 -14.642862 -13.263535 4.495478 20.960309 0.005543 7.184984 1.796264 0.113256 0.074175 -0.020091 -0.000000 0.000000 0.000000 0.000000 0.000000 0.000000 0.000000 
-10.138346 17.178665 -0.430784 150.938453 88.638871 151.500723 3.934357 -6.017322 -4.803219 0.571445 -6.486579 -2.908225 -5.541185 -6.437442 3.646902 10.206356 -22.743443 -11.380505 -2.590071 -0.156963 -0.913283 0.000000 0.000000 0.000000 4.821787 14.612619 1.271849 -36.195274 2.386021 -1.849703 -2.013133 -51.049004 0.002638 0.653633 -0.760201 -0.004872 -0.128300 0.150715 -0.000000 0.000000 0.000000 0.000000 0.000000 0.000000 0.000000 18.441724 -21.427224 -0.667604 73.067716 -13.771438 -13.427253 4.465410 20.833403 0.006168 6.872814 1.987338 0.119771 0.075926 -0.023405 -0.000000 0.000000 0.000000 0.000000 0.000000 0.000000 0.000000 
-9.974205 17.181793 -0.393771 155.481176 88.692949 155.894629 4.031724 -5.926472 -4.630603 0.567337 -6.398198 -2.892179 -5.579930 -6.347998 3.597265 10.266422 -22.579571 -11.381963 -2.602085 -0.157877 -0.914534 0.000000 0.000000 0.000000 4.792049 14.533214 1.267515 -36.695848 2.725265 -1.443849 -2.050336 -50.828886 0.002922 0.540337 -0.728795 -0.003777 -0.128597 0.144118 -0.000000 0.000000 0.000000 0.000000 0.000000 0.000000 0.000000 18.458063 -21.196288 -0.638670 72.719701 -12.863701 -13.546494 4.430527 20.751449 0.006839 6.537275 2.207099 0.126487 0.077713 -0.027031 -0.000000 0.000000 0.000000 0.000000 0.000000 0.000000 0.000000 
